<svg width="311" height="300" viewBox="0 0 311 300" fill="none" xmlns="http://www.w3.org/2000/svg">
<g clip-path="url(#clip0_28_9)">
<path d="M0 17.192C0 7.69711 7.69279 0 17.1823 0H293.818C303.307 0 311 7.69711 311 17.192V179.656C311 246.12 257.151 300 190.724 300H120.276C53.8495 300 0 246.12 0 179.656V17.192Z" fill="black"/>
<path d="M179.835 109.741C179.835 109.741 114.345 166.06 93 229M107.657 115.297C111.441 110.981 120.353 105.555 133.024 99.74C145.325 94.0952 160.048 88.5681 174.306 83.6871C188.538 78.8156 202.181 74.6322 212.273 71.6644C214.92 70.8866 217.453 73.158 216.971 75.874C216.929 76.108 216.887 76.344 216.845 76.5818C214.934 87.3259 212.225 101.821 209.032 116.856C205.833 131.918 202.173 147.402 198.369 160.169C196.464 166.558 194.559 172.147 192.699 176.611C190.771 181.238 189.133 184.052 187.971 185.379C185.982 187.647 181.64 189.498 174.154 189.998C166.974 190.477 158.415 189.613 149.953 188.127C141.556 186.654 133.585 184.632 127.686 182.966C124.746 182.136 122.341 181.4 120.679 180.875L120.64 180.862C119.814 179.421 118.654 177.337 117.319 174.771C114.604 169.552 111.216 162.425 108.433 154.688C105.628 146.891 103.57 138.825 103.261 131.639C102.952 124.424 104.429 118.98 107.657 115.297Z" stroke="white" stroke-width="10" stroke-linecap="round"/>
</g>
<defs>
<clipPath id="clip0_28_9">
<rect width="311" height="300" fill="white"/>
</clipPath>
</defs>
</svg>
